<svg xmlns="http://www.w3.org/2000/svg" viewBox="0 0 22 22"><path d="M20.6 18.9l-4.1-4.1c1.2-1.5 1.9-3.3 1.9-5.3 0-4.7-3.9-8.6-8.7-8.6C4.9 1 1 4.8 1 9.6c0 4.7 3.9 8.6 8.7 8.6 1.9 0 3.6-.6 5-1.6l4.2 4.1c.2.2.6.4.9.4.3 0 .6-.1.9-.4.4-.5.4-1.3-.1-1.8zM3.5 9.6c0-3.4 2.8-6.1 6.2-6.1 3.4 0 6.2 2.7 6.2 6.1 0 3.4-2.8 6.1-6.2 6.1-3.4 0-6.2-2.8-6.2-6.1z" fill="#2c3e51"/><path d="M19.8 21.9c-.6 0-1.1-.2-1.5-.6l-3.7-3.6c-1.5.9-3.2 1.4-4.9 1.4-5.3 0-9.6-4.2-9.6-9.4S4.4.3 9.7.3s9.6 4.2 9.6 9.4c0 1.9-.5 3.6-1.6 5.2l3.6 3.5c.4.4.6.9.6 1.5s-.2 1.1-.6 1.5c-.4.3-1 .5-1.5.5zm-5-6.5l4.7 4.6c.2.2.3.2.5 0 .1-.1.1-.2.1-.2 0-.1 0-.2-.1-.2L15.3 15l.5-.6c1.1-1.4 1.7-3 1.7-4.7C17.5 5.5 14 2 9.7 2S1.9 5.5 1.9 9.7s3.5 7.7 7.8 7.7c1.6 0 3.2-.5 4.5-1.4l.6-.6zm-5.1 1.2c-3.9 0-7.1-3.1-7.1-7s3.2-7 7.1-7c3.9 0 7.1 3.1 7.1 7 0 3.8-3.2 7-7.1 7zm0-12.3c-2.9 0-5.3 2.4-5.3 5.2 0 2.9 2.4 5.2 5.3 5.2S15 12.3 15 9.5c0-2.8-2.4-5.2-5.3-5.2z" fill="#fff"/></svg>