<?xml version="1.0" encoding="utf-8"?>
<!-- Generator: Adobe Illustrator 21.0.2, SVG Export Plug-In . SVG Version: 6.00 Build 0)  -->
<svg version="1.1" id="Слой_1" xmlns="http://www.w3.org/2000/svg" xmlns:xlink="http://www.w3.org/1999/xlink" x="0px" y="0px"
	 viewBox="0 0 22 22" style="enable-background:new 0 0 22 22;" xml:space="preserve">
<style type="text/css">
	.st0{fill:#2C3E51;}
	.st1{fill:#FFFFFF;}
</style>
<g id="Canvas">
	<g id="search-icon">
		<path class="st0" d="M20.6,18.9l-4.1-4.1c1.2-1.5,1.9-3.3,1.9-5.3c0-4.7-3.9-8.6-8.7-8.6C4.9,1,1,4.8,1,9.6c0,4.7,3.9,8.6,8.7,8.6
			c1.9,0,3.6-0.6,5-1.6l4.2,4.1c0.2,0.2,0.6,0.4,0.9,0.4c0.3,0,0.6-0.1,0.9-0.4C21.1,20.2,21.1,19.4,20.6,18.9z M3.5,9.6
			c0-3.4,2.8-6.1,6.2-6.1c3.4,0,6.2,2.7,6.2,6.1c0,3.4-2.8,6.1-6.2,6.1C6.3,15.7,3.5,12.9,3.5,9.6z"/>
		<path class="st1" d="M19.8,21.9c-0.6,0-1.1-0.2-1.5-0.6l-3.7-3.6c-1.5,0.9-3.2,1.4-4.9,1.4c-5.3,0-9.6-4.2-9.6-9.4
			c0-5.2,4.3-9.4,9.6-9.4c5.3,0,9.6,4.2,9.6,9.4c0,1.9-0.5,3.6-1.6,5.2l3.6,3.5c0.4,0.4,0.6,0.9,0.6,1.5s-0.2,1.1-0.6,1.5
			C20.9,21.7,20.3,21.9,19.8,21.9z M14.8,15.4l4.7,4.6c0.2,0.2,0.3,0.2,0.5,0c0.1-0.1,0.1-0.2,0.1-0.2c0-0.1,0-0.2-0.1-0.2l-4.7-4.6
			l0.5-0.6c1.1-1.4,1.7-3,1.7-4.7c0-4.2-3.5-7.7-7.8-7.7c-4.3,0-7.8,3.5-7.8,7.7c0,4.2,3.5,7.7,7.8,7.7c1.6,0,3.2-0.5,4.5-1.4
			L14.8,15.4z M9.7,16.6c-3.9,0-7.1-3.1-7.1-7c0-3.9,3.2-7,7.1-7c3.9,0,7.1,3.1,7.1,7C16.8,13.4,13.6,16.6,9.7,16.6z M9.7,4.3
			c-2.9,0-5.3,2.4-5.3,5.2c0,2.9,2.4,5.2,5.3,5.2c2.9,0,5.3-2.4,5.3-5.2C15,6.7,12.6,4.3,9.7,4.3z"/>
	</g>
</g>
</svg>
